HIERARCHY
ROOT Hips
{
  OFFSET 0 0 0
  CHANNELS 6 Xposition Yposition Zposition Zrotation Yrotation Xrotation
  JOINT LeftThigh
  {
    OFFSET 8.409438 0 -5.917753
    CHANNELS 3 Zrotation Yrotation Xrotation
    JOINT LeftLeg
    {
      OFFSET 0 0 -42.358652
      CHANNELS 3 Zrotation Yrotation Xrotation
      JOINT LeftFoot
      {
        OFFSET 0 0 -39.357303
        CHANNELS 3 Zrotation Yrotation Xrotation
      }
    }
  }
  JOINT RightThigh
  {
    OFFSET -8.409438 0 -5.917753
    CHANNELS 3 Zrotation Yrotation Xrotation
    JOINT RightLeg
    {
      OFFSET 0 0 -42.358652
      CHANNELS 3 Zrotation Yrotation Xrotation
      JOINT RightFoot
      {
        OFFSET 0 0 -39.357303
        CHANNELS 3 Zrotation Yrotation Xrotation
      }
    }
  }
  JOINT SpineLow
  {
    OFFSET 0 0 4.719101
    CHANNELS 3 Zrotation Yrotation Xrotation
    JOINT SpineMid
    {
      OFFSET 0 0 12.899191
      CHANNELS 3 Zrotation Yrotation Xrotation
      JOINT Chest
      {
        OFFSET 0 0 12.899191
        CHANNELS 3 Zrotation Yrotation Xrotation
        JOINT LeftShoulder
        {
          OFFSET 7.550562 1.41573 9.438202
          CHANNELS 3 Zrotation Yrotation Xrotation
          JOINT LeftArm
          {
            OFFSET 9.155056 0 4.247191
            CHANNELS 3 Zrotation Yrotation Xrotation
            JOINT LeftForearm
            {
              OFFSET 0 0 25.771955
              CHANNELS 3 Zrotation Yrotation Xrotation
              JOINT LeftHand
              {
                OFFSET 0 0 25.197169
                CHANNELS 3 Zrotation Yrotation Xrotation
              }
            }
          }
        }
        JOINT RightShoulder
        {
          OFFSET -7.550562 1.41573 9.438202
          CHANNELS 3 Zrotation Yrotation Xrotation
          JOINT RightArm
          {
            OFFSET -9.155056 0 4.247191
            CHANNELS 3 Zrotation Yrotation Xrotation
            JOINT RightForearm
            {
              OFFSET 0 0 -25.771955
              CHANNELS 3 Zrotation Yrotation Xrotation
              JOINT RightHand
              {
                OFFSET 0 0 -25.197169
                CHANNELS 3 Zrotation Yrotation Xrotation
              }
            }
          }
        }
        JOINT Neck
        {
          OFFSET 0 0 15.101124
          CHANNELS 3 Zrotation Yrotation Xrotation
          JOINT Head
          {
            OFFSET 0 0 11.325843
            CHANNELS 3 Zrotation Yrotation Xrotation
            End Site
            {
              OFFSET 0 0 14.157303
            }
          }
        }
      }
    }
  }
}
MOTION
Frames: 14
Frame Time: 0.0
0.0  89.887642  0.0  2.028732  14.687496  -94.403075  -10.635635  -13.07154  -7.56413  -6.863261  8.69565  24.593101  -2.178995  0.72986  -0.115894  -15.269491  12.264923  4.066921  -22.85789  7.039048  5.938181  2.444782  1.121187  -1.014885  0.67461  -0.662899  1.052596  1.815155  -1.840775  2.859094  1.815155  -1.840775  2.859094  -23.941091  12.112212  -9.928507  119.791772  47.525651  -149.83129  19.826518  7.938101  10.677975  98.611869  -4.913077  13.047763  2.475021  -2.399679  9.757602  93.849661  29.705412  15.98947  0.433833  -23.48903  -78.73882  45.954258  2.896124  -8.406402  -24.033348  2.77254  1.325212  -18.027584  2.030999  1.10495  
0.0  89.887642  0.0  1.931148  17.661847  -94.103531  -10.422443  -12.897697  -8.002438  -7.711339  8.155461  23.838078  -2.967847  0.502798  -0.247855  -14.793362  11.764288  4.09244  -23.661245  7.970169  6.821209  1.92104  1.333336  -0.952647  0.648891  -0.795159  1.144435  1.736181  -2.20346  3.10766  1.736181  -2.20346  3.10766  -23.868619  11.319348  -11.196932  118.657859  47.161174  -149.391198  20.220769  6.747167  12.148826  98.338378  -4.190072  14.405894  2.15614  -1.715334  9.48418  90.384357  29.520636  15.449296  4.914085  -25.749216  -84.206158  48.150074  2.566605  -7.027084  -25.900904  2.626884  0.554164  -19.424657  1.950823  0.528194  
0.0  89.887642  0.0  1.765401  20.055589  -93.94992  -9.716962  -12.742299  -8.204388  -8.636428  7.604801  23.018546  -3.439735  0.204466  -0.250835  -14.465858  11.280703  4.128564  -23.831423  8.803382  7.585865  1.331981  1.63761  -0.86609  0.520139  -0.977577  1.259058  1.371099  -2.698223  3.422041  1.371099  -2.698223  3.422041  -22.681228  10.588662  -12.697826  117.441602  46.38172  -149.394284  19.85784  4.472149  13.541678  99.112838  -2.920526  16.676524  2.606055  -0.660378  9.522704  88.012804  29.562139  15.659468  9.81715  -27.526839  -89.4546  50.280689  2.919253  -5.904831  -26.986747  2.590159  -0.210199  -20.235713  1.956444  -0.043147  
0.0  89.887642  0.0  1.533239  21.723602  -93.90176  -8.704664  -12.599432  -8.2721  -9.087897  6.94563  22.370811  -4.236591  -0.21975  -0.315471  -14.213689  10.894197  4.077308  -23.588548  9.604652  8.291607  0.971993  1.908211  -0.910877  0.423082  -1.145011  1.34173  1.093255  -3.152041  3.649862  1.093255  -3.152042  3.649863  -21.039254  9.735917  -13.885056  117.755744  45.164811  -148.710071  19.44245  1.739275  15.122134  99.926412  -0.986845  18.915321  3.409544  0.163434  10.121501  86.283088  29.839564  16.249615  12.672402  -27.432583  -93.008842  51.125857  2.996252  -6.572643  -27.815395  2.574422  -0.771935  -20.85482  1.970841  -0.46261  
0.0  89.887642  0.0  1.26817  22.696028  -93.888844  -7.448636  -12.460816  -8.263486  -9.382025  6.249604  21.847738  -4.714333  -0.54911  -0.280065  -13.864308  10.588494  4.112969  -23.137682  10.266576  8.705959  0.951138  1.890964  -0.893429  0.47959  -1.353297  1.337822  1.236745  -3.724187  3.63332  1.236745  -3.724187  3.633319  -19.558967  9.318779  -14.355444  119.865883  43.390225  -147.734589  19.006587  -1.764345  17.677376  100.111721  1.271573  20.871628  3.417705  1.276208  11.190518  85.06743  30.053911  17.188482  14.280982  -26.310658  -96.056852  51.434711  2.749742  -7.690276  -28.823146  2.844279  -1.133576  -21.607729  2.192532  -0.71749  
0.0  89.887642  0.0  1.003527  22.990773  -93.796104  -5.879779  -12.37815  -8.25489  -9.704822  5.637334  21.339028  -5.210558  -0.858824  -0.323945  -13.282297  10.305832  4.003014  -22.420752  10.667972  9.110516  0.928826  1.819901  -0.872724  0.73862  -1.608152  1.325311  1.932698  -4.434266  3.577989  1.932698  -4.434266  3.577989  -18.729949  9.272909  -14.000595  123.720924  41.489615  -146.587401  17.889151  -6.171135  21.764309  99.203073  3.487806  22.113159  2.174866  2.801337  12.312849  84.012647  30.665163  18.078546  15.547388  -25.086168  -98.974439  52.243514  2.451051  -8.562635  -30.256912  3.194106  -1.651019  -22.678376  2.484669  -1.082593  
0.0  89.887642  0.0  0.821793  22.645455  -93.576199  -4.120892  -12.357848  -8.29779  -10.062565  5.226003  20.928945  -5.320981  -1.040332  -0.250605  -12.768879  10.150096  3.527944  -21.512968  10.805954  9.667092  0.809532  1.77703  -0.846211  1.192642  -1.79079  1.305673  3.167527  -4.956438  3.485507  3.167527  -4.956438  3.485507  -18.400651  8.914943  -12.94032  128.83695  39.692654  -145.650892  15.059552  -10.478041  27.808818  96.602482  5.000678  21.875642  -0.409276  3.462534  12.697169  84.098544  30.950732  19.913231  15.513682  -23.810558  -101.437756  53.897183  2.243248  -9.348771  -31.910904  3.397451  -2.002068  -23.915348  2.661413  -1.327554  
0.0  89.887642  0.0  0.765531  21.523102  -93.252597  -2.482269  -12.339749  -8.268113  -10.183147  4.97911  20.604626  -5.349995  -1.15511  -0.257747  -12.299455  10.065562  2.643829  -20.635692  10.937764  10.407787  0.761141  1.694121  -0.801867  1.811759  -1.789263  1.297987  4.862938  -4.983383  3.417381  4.862937  -4.983383  3.417381  -17.923116  7.655427  -10.951374  134.786093  38.07771  -144.543844  10.249209  -13.456979  35.716955  92.298942  5.581053  20.34774  -3.686944  2.844249  12.981542  83.894509  31.545932  22.051239  14.269164  -21.882296  -103.362826  56.198467  2.290091  -9.964456  -33.61516  3.122162  -1.99785  -25.195259  2.460557  -1.330627  
0.0  89.887642  0.0  0.772429  18.990331  -93.026357  -0.418579  -12.333796  -7.825465  -10.104762  4.817973  20.229079  -5.127449  -1.16151  -0.221861  -11.557463  10.028046  1.339379  -19.6815  11.151709  11.454401  0.897034  1.613043  -0.741799  2.642705  -1.661663  1.270466  7.144824  -4.673255  3.291283  7.144823  -4.673255  3.291283  -17.303836  5.928663  -8.59949  140.829372  35.939306  -144.434887  3.365801  -14.118705  45.481904  86.630933  5.478985  18.297502  -7.513798  1.877571  13.939984  83.165452  32.82306  23.882194  11.919284  -19.117438  -104.936516  59.57139  3.141026  -9.736383  -35.105808  2.728779  -1.528316  -26.317759  2.14296  -0.992767  
0.0  89.887642  0.0  0.819066  15.1489  -92.85015  2.12946  -12.319714  -6.993299  -9.86433  4.685873  19.75752  -4.8465  -1.119278  -0.276977  -10.646264  10.051987  -0.483116  -18.13284  11.341377  12.945023  0.936119  1.500826  -0.65747  3.592964  -1.469361  1.336838  9.748319  -4.203305  3.430879  9.748319  -4.203305  3.430879  -16.016044  3.973098  -6.891022  146.125699  33.800655  -145.590779  -4.946269  -11.014348  56.235294  80.11237  5.310555  16.423694  -11.363874  0.714992  14.287432  82.009186  34.128433  25.78222  9.016926  -16.347687  -106.292208  65.67525  5.538083  -7.733713  -36.16985  2.033149  -1.170534  -27.120773  1.600962  -0.760361  
0.0  89.887642  0.0  1.063331  10.548811  -92.841022  4.537825  -12.109893  -5.807953  -9.187841  4.596158  19.416881  -4.459665  -0.970519  -0.292121  -9.80361  10.230974  -2.633436  -16.460594  11.529736  14.750154  1.390663  1.465428  -0.566683  4.271622  -1.374583  1.457964  11.601212  -3.99948  3.732576  11.601211  -3.99948  3.732577  -12.66795  3.396619  -5.428259  150.59846  31.908639  -148.110505  -12.991032  -4.390071  66.306877  72.836927  5.206396  15.064437  -13.523859  0.737233  14.492025  80.381155  35.226999  27.384176  4.855262  -13.249797  -106.856807  74.347348  9.263999  -4.121828  -35.768845  1.816953  -1.200054  -26.820952  1.438966  -0.796631  
0.0  89.887642  0.0  1.37262  5.58608  -93.051365  6.378183  -11.863849  -4.457115  -7.937964  4.654052  19.371719  -4.048135  -0.790118  -0.320432  -9.056388  10.297114  -4.880971  -14.284317  11.715357  16.761735  1.777573  1.479961  -0.45183  4.646581  -1.355771  1.504585  12.624852  -3.977133  3.839356  12.624852  -3.977133  3.839355  -8.245062  3.566315  -3.212176  155.628112  29.952568  -151.48296  -19.353741  5.191124  74.450444  64.856336  4.566368  14.694057  -14.620341  1.5304  15.276663  77.917558  36.579784  28.123718  -0.41876  -9.460399  -106.025914  84.833501  12.181755  0.472603  -34.150308  2.177616  -1.153144  -25.605652  1.704101  -0.745568  
0.0  89.887642  0.0  1.596031  0.210503  -93.32431  8.059205  -11.867163  -3.285286  -6.220986  5.020142  19.725788  -3.665057  -0.597764  -0.395977  -8.064984  10.046806  -7.176124  -11.767585  11.916349  18.887946  2.127812  1.528467  -0.30792  5.043335  -1.272825  1.500404  13.713952  -3.772447  3.819649  13.713952  -3.772447  3.819649  -4.775599  3.035317  -1.129262  162.009161  27.41711  -155.587663  -22.839119  16.774386  80.807329  56.237242  3.81421  15.624142  -16.806334  1.827892  15.885753  75.217297  38.290387  27.899365  -8.104744  -3.955591  -104.034763  93.193786  10.530939  3.352236  -32.430543  2.262759  -0.88772  -24.316518  1.750117  -0.547211  
0.0  89.887642  0.0  1.822321  -5.50285  -93.733467  9.804804  -12.174668  -2.261101  -4.237898  5.765303  20.487319  -3.282943  -0.38588  -0.500857  -6.584309  9.518338  -9.133991  -8.841743  12.098785  21.00106  2.200564  1.608914  -0.192377  5.210785  -1.117415  1.594637  14.173594  -3.379216  4.098651  14.173594  -3.379216  4.098651  -1.139523  3.043247  0.898856  170.302749  25.623797  -160.674817  -23.544586  27.564932  86.659772  43.380441  4.191644  18.873272  -18.021231  1.614961  15.778889  72.89388  39.865929  27.52832  -16.606045  5.280904  -101.950171  94.516799  5.283966  3.574849  -29.743772  1.983427  -0.97486  -22.302508  1.539417  -0.636166  
